<mxfile host="app.diagrams.net" modified="2024-06-17T19:55:44.324Z" agent="Mozilla/5.0 (Macintosh; Intel Mac OS X 10_15_7) AppleWebKit/537.36 (KHTML, like Gecko) Chrome/125.0.0.0 Safari/537.36" version="24.5.5" etag="rg2b10zV_5DA4LRn6AMH" type="github">
  <diagram name="Page-1" id="cXLGiRKD1TxSfUaYfzhn">
    <mxGraphModel>
      <root>
        <mxCell id="0" />
        <mxCell id="1" parent="0" />
      </root>
    </mxGraphModel>
  </diagram>
</mxfile>
